STARTFONT 2.1
FONT -FontForge-Amble-Book-R-Normal--12-120-75-75-P-62-ISO10646-1
SIZE 12 75 75
FONTBOUNDINGBOX 10 11 0 -3
COMMENT "Generated by fontforge, http://fontforge.sourceforge.net"
COMMENT "Font data copyright Punchcut 2009"
STARTPROPERTIES 38
FOUNDRY "FontForge"
FAMILY_NAME "Amble"
WEIGHT_NAME "Book"
SLANT "R"
SETWIDTH_NAME "Normal"
ADD_STYLE_NAME ""
PIXEL_SIZE 12
POINT_SIZE 120
RESOLUTION_X 75
RESOLUTION_Y 75
SPACING "P"
AVERAGE_WIDTH 62
CHARSET_REGISTRY "ISO10646"
CHARSET_ENCODING "1"
FONTNAME_REGISTRY ""
CHARSET_COLLECTIONS "ISO10646-1"
FONT_NAME "Amble-Regular"
FACE_NAME "Amble Regular"
COPYRIGHT "Font data copyright Punchcut 2009"
FONT_VERSION "1.00000; 2009"
FONT_ASCENT 9
FONT_DESCENT 3
UNDERLINE_POSITION -1
UNDERLINE_THICKNESS 1
X_HEIGHT 5
RAW_ASCENT 755
RAW_DESCENT 244
NORM_SPACE 3
RELATIVE_WEIGHT 40
RELATIVE_SETWIDTH 50
SUPERSCRIPT_X 0
SUPERSCRIPT_Y 5
SUPERSCRIPT_SIZE 7
SUBSCRIPT_X 0
SUBSCRIPT_Y 1
SUBSCRIPT_SIZE 7
AVG_LOWERCASE_WIDTH 62
AVG_UPPERCASE_WIDTH 80
ENDPROPERTIES
CHARS 43
STARTCHAR space
ENCODING 32
SWIDTH 243 0
DWIDTH 3 0
BBX 1 1 0 0
BITMAP
00
ENDCHAR
STARTCHAR hyphen
ENCODING 45
SWIDTH 380 0
DWIDTH 5 0
BBX 3 1 1 4
BITMAP
E0
ENDCHAR
STARTCHAR period
ENCODING 46
SWIDTH 257 0
DWIDTH 3 0
BBX 1 1 1 0
BITMAP
80
ENDCHAR
STARTCHAR zero
ENCODING 48
SWIDTH 578 0
DWIDTH 7 0
BBX 5 8 1 0
BITMAP
70
88
88
88
88
88
88
70
ENDCHAR
STARTCHAR one
ENCODING 49
SWIDTH 578 0
DWIDTH 7 0
BBX 5 8 1 0
BITMAP
E0
20
20
20
20
20
20
F8
ENDCHAR
STARTCHAR two
ENCODING 50
SWIDTH 578 0
DWIDTH 7 0
BBX 5 8 1 0
BITMAP
70
88
08
10
20
40
80
F8
ENDCHAR
STARTCHAR three
ENCODING 51
SWIDTH 578 0
DWIDTH 7 0
BBX 5 8 1 0
BITMAP
F0
08
08
70
08
08
08
F0
ENDCHAR
STARTCHAR four
ENCODING 52
SWIDTH 578 0
DWIDTH 6 0
BBX 6 8 0 0
BITMAP
18
18
28
68
48
FC
08
08
ENDCHAR
STARTCHAR five
ENCODING 53
SWIDTH 578 0
DWIDTH 7 0
BBX 5 8 1 0
BITMAP
78
80
80
F0
08
08
08
F0
ENDCHAR
STARTCHAR six
ENCODING 54
SWIDTH 578 0
DWIDTH 7 0
BBX 5 8 1 0
BITMAP
78
40
80
F0
88
88
88
70
ENDCHAR
STARTCHAR seven
ENCODING 55
SWIDTH 578 0
DWIDTH 7 0
BBX 5 8 1 0
BITMAP
F8
08
18
10
30
20
20
40
ENDCHAR
STARTCHAR eight
ENCODING 56
SWIDTH 578 0
DWIDTH 7 0
BBX 5 8 1 0
BITMAP
70
88
88
70
88
88
88
70
ENDCHAR
STARTCHAR nine
ENCODING 57
SWIDTH 578 0
DWIDTH 7 0
BBX 5 8 1 0
BITMAP
70
88
88
88
78
08
18
F0
ENDCHAR
STARTCHAR colon
ENCODING 58
SWIDTH 307 0
DWIDTH 4 0
BBX 1 5 1 0
BITMAP
80
00
00
00
80
ENDCHAR
STARTCHAR C
ENCODING 67
SWIDTH 547 0
DWIDTH 7 0
BBX 5 8 1 0
BITMAP
78
C0
80
80
80
80
C0
78
ENDCHAR
STARTCHAR M
ENCODING 77
SWIDTH 826 0
DWIDTH 10 0
BBX 8 8 1 0
BITMAP
C3
C3
A5
BD
99
81
81
81
ENDCHAR
STARTCHAR T
ENCODING 84
SWIDTH 580 0
DWIDTH 7 0
BBX 6 8 1 0
BITMAP
FC
20
20
20
20
20
20
20
ENDCHAR
STARTCHAR a
ENCODING 97
SWIDTH 539 0
DWIDTH 6 0
BBX 4 6 1 0
BITMAP
E0
10
70
90
90
F0
ENDCHAR
STARTCHAR b
ENCODING 98
SWIDTH 591 0
DWIDTH 7 0
BBX 5 8 1 0
BITMAP
80
80
F0
88
88
88
88
F0
ENDCHAR
STARTCHAR c
ENCODING 99
SWIDTH 469 0
DWIDTH 6 0
BBX 4 6 1 0
BITMAP
70
80
80
80
80
70
ENDCHAR
STARTCHAR d
ENCODING 100
SWIDTH 579 0
DWIDTH 7 0
BBX 5 8 1 0
BITMAP
08
08
78
88
88
88
88
78
ENDCHAR
STARTCHAR e
ENCODING 101
SWIDTH 542 0
DWIDTH 7 0
BBX 5 6 1 0
BITMAP
70
88
F8
80
80
78
ENDCHAR
STARTCHAR f
ENCODING 102
SWIDTH 376 0
DWIDTH 5 0
BBX 4 8 0 0
BITMAP
70
40
F0
40
40
40
40
40
ENDCHAR
STARTCHAR g
ENCODING 103
SWIDTH 581 0
DWIDTH 7 0
BBX 6 9 1 -3
BITMAP
7C
88
88
70
80
70
88
88
70
ENDCHAR
STARTCHAR h
ENCODING 104
SWIDTH 588 0
DWIDTH 7 0
BBX 5 8 1 0
BITMAP
80
80
F0
88
88
88
88
88
ENDCHAR
STARTCHAR i
ENCODING 105
SWIDTH 285 0
DWIDTH 3 0
BBX 1 8 1 0
BITMAP
80
00
80
80
80
80
80
80
ENDCHAR
STARTCHAR j
ENCODING 106
SWIDTH 298 0
DWIDTH 4 0
BBX 3 11 0 -3
BITMAP
20
00
20
20
20
20
20
20
20
20
E0
ENDCHAR
STARTCHAR k
ENCODING 107
SWIDTH 524 0
DWIDTH 6 0
BBX 5 8 1 0
BITMAP
80
80
98
B0
E0
A0
90
98
ENDCHAR
STARTCHAR l
ENCODING 108
SWIDTH 286 0
DWIDTH 3 0
BBX 1 8 1 0
BITMAP
80
80
80
80
80
80
80
80
ENDCHAR
STARTCHAR m
ENCODING 109
SWIDTH 896 0
DWIDTH 11 0
BBX 9 6 1 0
BITMAP
FF80
8880
8880
8880
8880
8880
ENDCHAR
STARTCHAR n
ENCODING 110
SWIDTH 588 0
DWIDTH 7 0
BBX 5 6 1 0
BITMAP
F8
88
88
88
88
88
ENDCHAR
STARTCHAR o
ENCODING 111
SWIDTH 581 0
DWIDTH 7 0
BBX 5 6 1 0
BITMAP
70
88
88
88
88
70
ENDCHAR
STARTCHAR p
ENCODING 112
SWIDTH 583 0
DWIDTH 7 0
BBX 5 8 1 -2
BITMAP
F0
88
88
88
88
F0
80
80
ENDCHAR
STARTCHAR q
ENCODING 113
SWIDTH 579 0
DWIDTH 7 0
BBX 5 8 1 -2
BITMAP
78
88
88
88
88
78
08
08
ENDCHAR
STARTCHAR r
ENCODING 114
SWIDTH 372 0
DWIDTH 4 0
BBX 3 6 1 0
BITMAP
E0
80
80
80
80
80
ENDCHAR
STARTCHAR s
ENCODING 115
SWIDTH 474 0
DWIDTH 6 0
BBX 4 6 1 0
BITMAP
F0
80
C0
30
10
F0
ENDCHAR
STARTCHAR t
ENCODING 116
SWIDTH 396 0
DWIDTH 5 0
BBX 4 8 0 0
BITMAP
40
40
F0
40
40
40
40
70
ENDCHAR
STARTCHAR u
ENCODING 117
SWIDTH 588 0
DWIDTH 7 0
BBX 5 6 1 0
BITMAP
88
88
88
88
88
78
ENDCHAR
STARTCHAR v
ENCODING 118
SWIDTH 496 0
DWIDTH 6 0
BBX 6 6 0 0
BITMAP
CC
48
48
30
30
30
ENDCHAR
STARTCHAR w
ENCODING 119
SWIDTH 743 0
DWIDTH 9 0
BBX 9 6 0 0
BITMAP
C980
4900
5500
5500
6600
2200
ENDCHAR
STARTCHAR x
ENCODING 120
SWIDTH 518 0
DWIDTH 6 0
BBX 6 6 0 0
BITMAP
CC
28
30
30
68
CC
ENDCHAR
STARTCHAR y
ENCODING 121
SWIDTH 513 0
DWIDTH 6 0
BBX 6 8 0 -2
BITMAP
CC
48
48
30
30
30
20
60
ENDCHAR
STARTCHAR z
ENCODING 122
SWIDTH 505 0
DWIDTH 6 0
BBX 5 6 1 0
BITMAP
F0
30
20
40
80
F8
ENDCHAR
ENDFONT
